<svg height="300" viewBox="-17 0 512 512" width="300" xmlns="http://www.w3.org/2000/svg"><title>007 microbe</title><g class="nc-icon-wrapper"><g fill="#bf4d90"><path d="M239.629 114.758a8.824 8.824 0 0 1-8.828-8.828V8.828A8.824 8.824 0 0 1 239.629 0a8.823 8.823 0 0 1 8.824 8.828v97.102a8.823 8.823 0 0 1-8.824 8.828zm0 0"/><path d="M239.629 70.621a8.809 8.809 0 0 1-6.242-2.586l-44.137-44.14a8.813 8.813 0 0 1 0-12.48 8.813 8.813 0 0 1 12.48 0l44.137 44.136a8.818 8.818 0 0 1 0 12.484 8.84 8.84 0 0 1-6.238 2.586zm0 0"/><path d="M239.629 70.621a8.809 8.809 0 0 1-6.242-2.586 8.818 8.818 0 0 1 0-12.484l44.136-44.137a8.818 8.818 0 0 1 12.485 0 8.82 8.82 0 0 1 0 12.48l-44.14 44.141a8.84 8.84 0 0 1-6.24 2.586zm0 0"/><path d="M239.629 512a8.824 8.824 0 0 1-8.828-8.828V406.07a8.824 8.824 0 0 1 8.828-8.828 8.823 8.823 0 0 1 8.824 8.828v97.102A8.823 8.823 0 0 1 239.63 512zm0 0"/><path d="M283.766 503.172a8.799 8.799 0 0 1-6.243-2.586l-44.136-44.137a8.818 8.818 0 0 1 0-12.484 8.82 8.82 0 0 1 12.48 0l44.14 44.14a8.82 8.82 0 0 1 0 12.48 8.832 8.832 0 0 1-6.241 2.587zm0 0"/><path d="M195.488 503.172a8.79 8.79 0 0 1-6.238-2.586 8.813 8.813 0 0 1 0-12.48l44.137-44.141a8.82 8.82 0 0 1 12.48 0 8.818 8.818 0 0 1 0 12.484l-44.137 44.137a8.826 8.826 0 0 1-6.242 2.586zm0 0"/><path d="M451.145 392.695c-1.57 0-3.16-.414-4.598-1.297l-79.113-48.421c-4.16-2.54-5.465-7.97-2.922-12.137 2.543-4.156 7.968-5.48 12.136-2.914l79.114 48.422c4.156 2.543 5.465 7.968 2.922 12.136a8.848 8.848 0 0 1-7.54 4.211zm0 0"/><path d="M405.816 365.293a8.833 8.833 0 0 1-8.562-6.715c-1.168-4.734 1.719-9.52 6.453-10.683l60.61-14.938c4.714-1.18 9.515 1.715 10.68 6.453 1.167 4.735-1.72 9.52-6.454 10.684l-60.61 14.937a8.425 8.425 0 0 1-2.117.262zm0 0"/><path d="M420.75 425.906a8.844 8.844 0 0 1-8.563-6.719l-14.933-60.609c-1.168-4.734 1.719-9.52 6.453-10.683 4.688-1.207 9.516 1.714 10.68 6.453l14.937 60.609c1.164 4.734-1.722 9.516-6.453 10.684a8.395 8.395 0 0 1-2.121.265zm0 0"/><path d="M107.203 194.207a8.761 8.761 0 0 1-4.555-1.281l-83.101-50.227c-4.176-2.515-5.516-7.945-2.992-12.12 2.523-4.177 7.953-5.5 12.12-2.985l83.102 50.23c4.176 2.516 5.516 7.946 2.993 12.117a8.834 8.834 0 0 1-7.567 4.266zm0 0"/><path d="M8.82 186.305a8.837 8.837 0 0 1-8.562-6.715c-1.164-4.735 1.722-9.516 6.453-10.684l60.61-14.933c4.714-1.196 9.515 1.718 10.683 6.449 1.164 4.734-1.723 9.52-6.453 10.683l-60.61 14.938a8.05 8.05 0 0 1-2.12.262zm0 0"/><path d="M69.43 171.371a8.844 8.844 0 0 1-8.563-6.719l-14.933-60.601c-1.168-4.73 1.718-9.516 6.453-10.68 4.703-1.195 9.515 1.711 10.68 6.453l14.937 60.598c1.164 4.734-1.723 9.52-6.453 10.683a8.44 8.44 0 0 1-2.121.266zm0 0"/><path d="M372.05 194.207a8.849 8.849 0 0 1-7.566-4.254c-2.523-4.176-1.183-9.605 2.993-12.121l83.101-50.23c4.168-2.516 9.598-1.192 12.121 2.984a8.819 8.819 0 0 1-2.992 12.121l-83.102 50.23a8.858 8.858 0 0 1-4.554 1.27zm0 0"/><path d="M470.426 186.305a8.748 8.748 0 0 1-2.121-.254l-60.61-14.938c-4.73-1.164-7.625-5.949-6.453-10.68 1.176-4.734 5.977-7.656 10.684-6.453l60.61 14.934c4.73 1.168 7.624 5.953 6.452 10.684-.988 4.023-4.601 6.707-8.562 6.707zm0 0"/><path d="M409.813 171.371c-.704 0-1.41-.082-2.118-.258-4.73-1.164-7.625-5.949-6.453-10.68l14.938-60.601c1.164-4.742 5.957-7.656 10.68-6.453 4.734 1.164 7.628 5.95 6.452 10.68l-14.937 60.601c-.988 4.016-4.59 6.711-8.563 6.711zm0 0"/><path d="M28.11 392.695a8.838 8.838 0 0 1-7.54-4.218c-2.543-4.168-1.234-9.598 2.922-12.141l79.113-48.418c4.149-2.543 9.586-1.246 12.137 2.914 2.543 4.168 1.238 9.594-2.922 12.137L32.707 391.39a8.71 8.71 0 0 1-4.598 1.304zm0 0"/><path d="M73.43 365.293c-.707 0-1.41-.078-2.118-.254l-60.609-14.937c-4.734-1.164-7.629-5.95-6.453-10.68 1.164-4.742 5.984-7.645 10.68-6.453l60.61 14.933c4.733 1.168 7.628 5.953 6.452 10.684-.988 4.016-4.59 6.707-8.562 6.707zm0 0"/><path d="M58.492 425.906c-.703 0-1.41-.082-2.117-.258-4.73-1.164-7.625-5.949-6.453-10.68l14.937-60.613c1.164-4.738 5.942-7.668 10.68-6.453 4.734 1.168 7.629 5.953 6.453 10.684l-14.933 60.61a8.846 8.846 0 0 1-8.567 6.71zm0 0"/><path d="M416.188 308.93c-.575 0-1.157-.051-1.739-.176l-66.922-13.383a8.846 8.846 0 0 1-6.879-6.7c-3.503-15.456-4.12-31.179-1.835-46.76a8.841 8.841 0 0 1 7-7.372l68.628-13.727c4.793-.98 9.426 2.137 10.387 6.922.965 4.786-2.144 9.426-6.918 10.391L355.56 250.59a109.174 109.174 0 0 0 1.203 28.617l61.156 12.227c4.785.953 7.883 5.605 6.922 10.39a8.842 8.842 0 0 1-8.653 7.106zm0 0"/><path d="M311.863 185.898a8.762 8.762 0 0 1-3.308-.644c-12-4.844-23.414-11.555-33.918-19.914a8.855 8.855 0 0 1-2.754-10.055l30.101-79.015c1.73-4.555 6.832-6.84 11.399-5.102 4.554 1.73 6.84 6.832 5.11 11.394l-27.747 72.829c5.926 4.238 12.129 7.902 18.547 10.922l47.098-57.196a8.808 8.808 0 0 1 12.43-1.199c3.757 3.098 4.296 8.648 1.199 12.418l-51.34 62.344a8.823 8.823 0 0 1-6.817 3.218zm0 0"/><path d="M167.383 185.898a8.84 8.84 0 0 1-6.817-3.21l-51.34-62.34c-3.097-3.77-2.558-9.332 1.2-12.422 3.761-3.106 9.332-2.57 12.43 1.199l47.093 57.195c6.418-3.027 12.625-6.683 18.547-10.918l-27.742-72.828c-1.73-4.566.547-9.668 5.11-11.398 4.546-1.739 9.656.547 11.398 5.101l30.101 79.016a8.838 8.838 0 0 1-2.754 10.055c-10.507 8.363-21.91 15.062-33.918 19.918a9.094 9.094 0 0 1-3.308.632zm0 0"/><path d="M63.066 308.93c-4.12 0-7.812-2.895-8.64-7.098a8.836 8.836 0 0 1 6.918-10.39l61.16-12.227a109.173 109.173 0 0 0 1.2-28.617l-62.349-12.465c-4.785-.953-7.882-5.606-6.921-10.39.953-4.786 5.57-7.911 10.39-6.923l68.625 13.73a8.827 8.827 0 0 1 7 7.372c2.285 15.578 1.668 31.3-1.836 46.758a8.831 8.831 0 0 1-6.875 6.699l-66.925 13.383a8.985 8.985 0 0 1-1.747.168zm0 0"/><path d="M169.008 459c-1.051 0-2.11-.188-3.145-.574-4.554-1.73-6.84-6.832-5.11-11.399l30.368-79.703a118.707 118.707 0 0 0-16.094-10.203l-52.18 63.363a8.809 8.809 0 0 1-12.429 1.2 8.816 8.816 0 0 1-1.2-12.418l56.618-68.758c2.55-3.09 6.871-4.09 10.496-2.41 11.203 5.144 21.629 11.722 30.996 19.578a8.826 8.826 0 0 1 2.578 9.914l-32.664 85.75c-1.332 3.496-4.687 5.66-8.234 5.66zm0 0"/><path d="M310.246 459a8.837 8.837 0 0 1-8.254-5.688l-32.668-85.75a8.834 8.834 0 0 1 2.578-9.914 137.683 137.683 0 0 1 30.993-19.578 8.843 8.843 0 0 1 10.496 2.41l56.629 68.758c3.097 3.77 2.558 9.332-1.2 12.422a8.821 8.821 0 0 1-12.43-1.203l-52.18-63.363a121.192 121.192 0 0 0-16.093 10.203l30.367 79.707c1.739 4.562-.546 9.664-5.113 11.394a8.08 8.08 0 0 1-3.125.602zm0 0"/></g><path d="M239.629 423.723a8.822 8.822 0 0 1-8.05-5.2c-22.849-50.68-71.321-79.816-123.43-74.3a8.813 8.813 0 0 1-8.606-4.414 8.817 8.817 0 0 1 .61-9.657c32.202-43.015 32.202-96.468 0-139.484a8.823 8.823 0 0 1-.61-9.66 8.834 8.834 0 0 1 8.605-4.41c52.118 5.515 100.582-23.625 123.43-74.305a8.834 8.834 0 0 1 16.102.012c22.843 50.675 71.324 79.843 123.425 74.3a8.766 8.766 0 0 1 8.606 4.415 8.817 8.817 0 0 1-.61 9.656c-32.203 43.015-32.203 96.469 0 139.484a8.816 8.816 0 0 1 .61 9.656c-1.73 3.055-5.082 4.805-8.606 4.414-52.144-5.535-100.582 23.625-123.425 74.305a8.84 8.84 0 0 1-8.051 5.188zm0 0" fill="#6c2e56"/><path d="M204.316 291.273c-29.21 0-52.964-23.753-52.964-52.964s23.753-52.965 52.964-52.965 52.965 23.754 52.965 52.965c0 29.21-23.761 52.964-52.965 52.964zm0-88.273c-19.472 0-35.308 15.836-35.308 35.309s15.836 35.312 35.308 35.312 35.313-15.84 35.313-35.312S223.78 203 204.316 203zm0 0" fill="#bf4d90"/><path d="M292.594 326.586c-19.477 0-35.313-15.836-35.313-35.313 0-19.472 15.836-35.308 35.313-35.308 19.472 0 35.308 15.836 35.308 35.308 0 19.477-15.843 35.313-35.308 35.313zm0-52.965c-9.739 0-17.656 7.918-17.656 17.652 0 9.739 7.917 17.657 17.656 17.657 9.734 0 17.652-7.918 17.652-17.657 0-9.734-7.918-17.652-17.652-17.652zm0 0" fill="#bf4d90"/></g></svg>