<svg height="300" viewBox="0 0 512 512" width="300" xmlns="http://www.w3.org/2000/svg"><title>036 mountain 2</title><g class="nc-icon-wrapper"><path d="M124.965 273.434c-6.403 7.39-21.434 7.566-25.512-4.793-1.945-5.871-5.324-10.895-6.762-17.106-1.406-6.058-2.015-12.226-3.699-18.238-.152-.524-.336-1.027-.496-1.547-2.02 5.332-4.148 10.648-6.762 15.828-5.332 10.567-14.925 22.121-13.699 34.524 1.41 14.265-15.504 17.304-24.02 9.472L0 397.242V512h88.277l54.625-195.512zm0 0" fill="#426d5f"/><path d="M365.71 309.125L305 177.145c-6.223 4.007-15.492 4.128-20.93-3.657-8.992-12.886-17.547-23.047-23.09-38.074-2.058-5.578-4.28-11.164-6.43-16.781-3.124 7.824-6.273 15.637-9.362 23.472-5.786 14.68-16.032 27.825-20.88 42.657.337 3.61-.804 7.414-4.148 10.75l-1.105 1.105c-6.617 6.63-15.598 4.75-20.586-.945L52.965 512h272.879s13.558-33.059 32.59-79.45l21.152-51.562c9.543-23.25-23.762-47.746-13.875-71.863zm0 0" fill="#61b872"/><path d="M467.906 273.77c-1.527.539-3.258.84-5.199.804-14.309-.23-17.285-12.82-20.93-24.074-5.093-15.73-11.09-30.754-17.648-45.742-7.184 15.808-14.758 31.496-19.324 48.445-2.672 9.938-12.438 11.961-19.739 8.73-14.87 36.247-32.261 78.633-48.851 119.067l-21.14 51.55C303.5 460.759 282.484 512 282.484 512H512V379.586zm0 0" fill="#3d6f44"/><path d="M306.672 180.77L256 70.62l-58.402 126.977 23.093 23.093 26.48-26.484 26.485 26.484 8.828-26.484zm0 0" fill="#e7eced"/><path d="M423.723 167.723l-39.504 96.285 21.851 27.3 17.653-17.652 17.656 17.653 26.855-16.782zm0 0" fill="#e7eced"/><path d="M194.207 70.621a8.826 8.826 0 0 1-8.828-8.828c0-9.738-7.918-17.656-17.656-17.656a8.823 8.823 0 0 1-8.825-8.828 8.822 8.822 0 0 1 8.825-8.825c9.394 0 17.937 3.688 24.277 9.692 9.04-16.297 26.43-27.348 46.344-27.348a8.824 8.824 0 0 1 8.828 8.828 8.826 8.826 0 0 1-8.828 8.828c-19.473 0-35.309 15.836-35.309 35.309a8.826 8.826 0 0 1-8.828 8.828zm0 0" fill="#28384c"/><path d="M485.516 26.484c-3.371 0-6.567.688-9.532 1.836C472.742 12.172 458.488 0 441.38 0s-31.363 12.172-34.606 28.32c-2.964-1.148-6.16-1.836-9.53-1.836-14.63 0-26.485 11.856-26.485 26.48 0 14.63 11.855 26.485 26.484 26.485h88.274C500.145 79.45 512 67.594 512 52.965c0-14.625-11.855-26.48-26.484-26.48zm0 0" fill="#afb6bb"/><path d="M114.758 88.277c-3.371 0-6.567.688-9.531 1.836-3.243-16.148-17.497-28.32-34.606-28.32s-31.363 12.172-34.605 28.32c-2.965-1.148-6.16-1.836-9.532-1.836C11.855 88.277 0 100.133 0 114.757c0 14.63 11.855 26.485 26.484 26.485h88.274c14.629 0 26.484-11.855 26.484-26.484 0-14.625-11.855-26.48-26.484-26.48zm0 0" fill="#839594"/><g fill="#e7eced"><path d="M344.277 379.586c-3.375 0-6.57.687-9.535 1.836-3.238-16.145-17.496-28.32-34.605-28.32-17.106 0-31.364 12.175-34.602 28.32-2.969-1.149-6.164-1.836-9.535-1.836-14.629 0-26.484 11.855-26.484 26.484 0 14.625 11.855 26.48 26.484 26.48h88.277c14.625 0 26.48-11.855 26.48-26.48 0-14.629-11.855-26.484-26.48-26.484zm0 0"/><path d="M88.277 185.379l-45.613 109.46 19.129 22.954 17.656-17.656 26.48 8.828 21.372-29.926zm0 0"/></g></g></svg>