<svg height="300" viewBox="-49 0 512 512" width="300" xmlns="http://www.w3.org/2000/svg"><title>002 diagnosis</title><g class="nc-icon-wrapper"><path d="M391.723 52.965H23.172C10.372 52.965 0 63.34 0 76.137v412.691C0 501.628 10.371 512 23.172 512h368.55c12.801 0 23.176-10.371 23.176-23.172V76.137c0-12.797-10.375-23.172-23.175-23.172zm0 0" fill="#9e6c53"/><path d="M300.137 88.277v17.653H123.586V88.277H35.309v388.414h256l88.277-88.277V88.277zm0 0" fill="#f7e6a1"/><path d="M247.172 35.309c0-19.5-15.809-35.309-35.309-35.309s-35.312 15.809-35.312 35.309h-52.965v70.62h176.55V35.31zm0 0" fill="#cdd2d3"/><path d="M211.863 70.621c-4.875 0-8.828-3.957-8.828-8.828V35.309c0-4.871 3.953-8.825 8.828-8.825 4.871 0 8.828 3.953 8.828 8.825v26.484c0 4.871-3.957 8.828-8.828 8.828zm0 0" fill="#7a8389"/><g fill="#c9b875"><path d="M335.45 432.55l-44.141 44.141v-88.277h88.277zm0 0"/><path d="M247.172 344.277H150.07a8.829 8.829 0 0 1 0-17.656h97.102a8.829 8.829 0 0 1 0 17.656zm0 0"/><path d="M335.45 344.277h-52.966a8.829 8.829 0 0 1 0-17.656h52.965c4.871 0 8.828 3.953 8.828 8.828 0 4.871-3.957 8.828-8.828 8.828zm0 0"/><path d="M114.758 344.277H79.449a8.829 8.829 0 0 1 0-17.656h35.309a8.829 8.829 0 0 1 0 17.656zm0 0"/><path d="M247.172 432.55H150.07a8.829 8.829 0 0 1-8.828-8.827c0-4.871 3.953-8.825 8.828-8.825h97.102c4.875 0 8.828 3.954 8.828 8.825a8.829 8.829 0 0 1-8.828 8.828zm0 0"/><path d="M114.758 432.55H79.449a8.829 8.829 0 0 1-8.828-8.827c0-4.871 3.953-8.825 8.828-8.825h35.309c4.875 0 8.828 3.954 8.828 8.825a8.829 8.829 0 0 1-8.828 8.828zm0 0"/><path d="M176.55 388.414h-97.1a8.829 8.829 0 0 1 0-17.656h97.1a8.829 8.829 0 0 1 0 17.656zm0 0"/><path d="M247.172 388.414h-35.309a8.829 8.829 0 0 1 0-17.656h35.309a8.829 8.829 0 0 1 0 17.656zm0 0"/><path d="M282.484 300.137h-52.968c-4.871 0-8.825-3.953-8.825-8.828 0-4.871 3.954-8.825 8.825-8.825h52.968c4.871 0 8.825 3.954 8.825 8.825 0 4.875-3.954 8.828-8.825 8.828zm0 0"/><path d="M335.45 300.137h-17.657c-4.871 0-8.828-3.953-8.828-8.828 0-4.871 3.957-8.825 8.828-8.825h17.656c4.871 0 8.828 3.954 8.828 8.825 0 4.875-3.957 8.828-8.828 8.828zm0 0"/><path d="M335.45 256h-52.966a8.829 8.829 0 0 1 0-17.656h52.965c4.871 0 8.828 3.957 8.828 8.828 0 4.875-3.957 8.828-8.828 8.828zm0 0"/><path d="M247.172 256h-17.656c-4.871 0-8.825-3.953-8.825-8.828 0-4.871 3.954-8.828 8.825-8.828h17.656a8.829 8.829 0 0 1 0 17.656zm0 0"/><path d="M282.484 211.863h-52.968c-4.871 0-8.825-3.957-8.825-8.828 0-4.875 3.954-8.828 8.825-8.828h52.968c4.871 0 8.825 3.953 8.825 8.828 0 4.871-3.954 8.828-8.825 8.828zm0 0"/><path d="M335.45 211.863h-17.657c-4.871 0-8.828-3.957-8.828-8.828 0-4.875 3.957-8.828 8.828-8.828h17.656c4.871 0 8.828 3.953 8.828 8.828 0 4.871-3.957 8.828-8.828 8.828zm0 0"/><path d="M335.45 167.723h-52.966c-4.875 0-8.828-3.953-8.828-8.825a8.829 8.829 0 0 1 8.828-8.828h52.965c4.871 0 8.828 3.953 8.828 8.828 0 4.872-3.957 8.825-8.828 8.825zm0 0"/><path d="M247.172 167.723h-17.656c-4.871 0-8.825-3.953-8.825-8.825 0-4.875 3.954-8.828 8.825-8.828h17.656a8.829 8.829 0 0 1 8.828 8.828c0 4.872-3.953 8.825-8.828 8.825zm0 0"/></g><path d="M194.207 211.863c0 34.125-27.664 61.793-61.793 61.793s-61.793-27.668-61.793-61.793c0-34.129 27.664-61.793 61.793-61.793s61.793 27.664 61.793 61.793zm0 0" fill="#dd352e"/><path d="M132.414 247.172a8.829 8.829 0 0 1-8.828-8.828v-52.965c0-4.871 3.953-8.828 8.828-8.828 4.871 0 8.828 3.957 8.828 8.828v52.965c0 4.875-3.957 8.828-8.828 8.828zm0 0" fill="#fff"/><path d="M158.898 220.691H105.93c-4.871 0-8.828-3.957-8.828-8.828 0-4.875 3.957-8.828 8.828-8.828h52.968c4.872 0 8.825 3.953 8.825 8.828 0 4.871-3.953 8.828-8.825 8.828zm0 0" fill="#fff"/></g></svg>