<svg height="300" viewBox="0 0 512 512" width="300" xmlns="http://www.w3.org/2000/svg"><title>041 temple</title><g class="nc-icon-wrapper"><path d="M70.621 61.793H441.38v132.414H70.62zm0 0" fill="#f7e6a1"/><path d="M61.793 238.344h388.414v176.554H61.793zm0 0" fill="#f7e6a1"/><g fill="#ccbc7a"><path d="M17.656 406.07h476.688v61.793H17.656zm0 0"/><path d="M459.035 176.55H52.965c0 29.274-23.692 52.966-52.965 52.966v35.312h512v-35.312c-29.273 0-52.965-23.692-52.965-52.965zm0 0"/><path d="M459.035 0H52.965c0 29.273-23.692 52.965-52.965 52.965v35.312h512V52.965c-29.273 0-52.965-23.692-52.965-52.965zm0 0"/></g><path d="M105.93 132.414h70.62v44.137h-70.62zm0 0" fill="#ed8a19"/><path d="M335.45 132.414h70.62v44.137h-70.62zm0 0" fill="#ed8a19"/><path d="M220.691 132.414h70.618v44.137H220.69zm0 0" fill="#ed8a19"/><path d="M308.965 406.07h-105.93v-52.968c0-29.254 23.711-52.965 52.965-52.965s52.965 23.71 52.965 52.965zm0 0" fill="#ebba16"/><path d="M97.102 300.137h70.62V406.07h-70.62zm0 0" fill="#ed8a19"/><path d="M344.277 300.137h70.621V406.07h-70.62zm0 0" fill="#ed8a19"/><path d="M132.414 379.586a8.824 8.824 0 0 1-8.828-8.828v-35.309a8.824 8.824 0 0 1 8.828-8.828 8.826 8.826 0 0 1 8.828 8.828v35.309a8.826 8.826 0 0 1-8.828 8.828zm0 0" fill="#fff"/><path d="M379.586 379.586a8.826 8.826 0 0 1-8.828-8.828v-35.309a8.826 8.826 0 0 1 8.828-8.828 8.824 8.824 0 0 1 8.828 8.828v35.309a8.824 8.824 0 0 1-8.828 8.828zm0 0" fill="#fff"/><path d="M494.344 423.723H88.277a8.826 8.826 0 0 0-8.828 8.828 8.824 8.824 0 0 0 8.828 8.828h406.067zm0 0" fill="#ad9f63"/><path d="M52.965 423.723H17.656v17.656h35.309a8.824 8.824 0 0 0 8.828-8.828 8.826 8.826 0 0 0-8.828-8.828zm0 0" fill="#ad9f63"/><path d="M247.172 300.934V406.07h17.656V300.934c-2.879-.489-5.808-.797-8.828-.797s-5.95.308-8.828.797zm0 0" fill="#bf9316"/><path d="M0 459.035h512V512H0zm0 0" fill="#f7e6a1"/><path d="M512 476.691h-35.309a8.823 8.823 0 0 0-8.828 8.825 8.824 8.824 0 0 0 8.828 8.828H512zm0 0" fill="#ccbc7a"/><path d="M441.379 476.691H0v17.653h441.379a8.824 8.824 0 0 0 8.828-8.828 8.823 8.823 0 0 0-8.828-8.825zm0 0" fill="#ccbc7a"/></g></svg>