<svg height="300" viewBox="-4 0 512 512" width="300" xmlns="http://www.w3.org/2000/svg"><title>032 castle</title><g class="nc-icon-wrapper"><path d="M190.914 156.203h121.492v156.203H190.914zm0 0" fill="#be6e41"/><path d="M121.492 303.73h260.34V512h-260.34zm0 0" fill="#6c4127"/><path d="M251.66 104.137a8.675 8.675 0 0 1-8.676-8.68V17.355a8.674 8.674 0 0 1 8.676-8.675 8.675 8.675 0 0 1 8.68 8.675v78.102c0 4.8-3.887 8.68-8.68 8.68zm0 0" fill="#e7eced"/><path d="M303.73 52.066h-52.07a8.674 8.674 0 0 1-8.676-8.675V8.68c0-4.801 3.887-8.68 8.676-8.68h52.07a8.675 8.675 0 0 1 8.676 8.68v34.71a8.674 8.674 0 0 1-8.676 8.676zm0 0" fill="#dd352e"/><path d="M17.355 260.34h121.493V512H17.355zm0 0" fill="#be6e41"/><path d="M104.137 373.152h-52.07v-43.39c0-14.38 11.656-26.032 26.035-26.032 14.378 0 26.035 11.653 26.035 26.032zm0 0" fill="#fff"/><path d="M86.781 416.543H52.066a8.675 8.675 0 0 1-8.675-8.68 8.674 8.674 0 0 1 8.675-8.675h34.715a8.674 8.674 0 0 1 8.676 8.675c0 4.801-3.887 8.68-8.676 8.68zm0 0" fill="#6c4127"/><path d="M86.781 485.965H52.066a8.674 8.674 0 0 1-8.675-8.676c0-4.8 3.886-8.68 8.675-8.68h34.715a8.675 8.675 0 0 1 8.676 8.68 8.674 8.674 0 0 1-8.676 8.676zm0 0" fill="#6c4127"/><path d="M104.137 451.254H69.422a8.674 8.674 0 0 1-8.676-8.676c0-4.8 3.887-8.68 8.676-8.68h34.715a8.675 8.675 0 0 1 8.675 8.68 8.674 8.674 0 0 1-8.675 8.676zm0 0" fill="#6c4127"/><path d="M364.473 260.34h121.492V512H364.473zm0 0" fill="#be6e41"/><path d="M451.254 373.152h-52.067v-43.39c0-14.38 11.653-26.032 26.032-26.032 14.383 0 26.035 11.653 26.035 26.032zm0 0" fill="#fff"/><path d="M277.695 269.016H225.63v-43.387c0-14.383 11.652-26.035 26.031-26.035s26.035 11.652 26.035 26.035zm0 0" fill="#fff"/><path d="M329.762 164.883H173.559l78.101-86.781zm0 0" fill="#6c4127"/><path d="M312.406 512H190.914v-95.457c0-33.55 27.2-60.746 60.746-60.746 33.55 0 60.746 27.195 60.746 60.746zm0 0" fill="#be7c6d"/><g fill="#ddaea6"><path d="M329.762 442.578H295.05a8.68 8.68 0 0 1 0-17.36h34.71a8.676 8.676 0 0 1 8.68 8.68 8.678 8.678 0 0 1-8.68 8.68zm0 0"/><path d="M329.762 485.965H295.05c-4.79 0-8.68-3.88-8.68-8.676 0-4.8 3.89-8.68 8.68-8.68h34.71a8.676 8.676 0 0 1 8.68 8.68 8.675 8.675 0 0 1-8.68 8.676zm0 0"/><path d="M208.27 442.578h-34.711a8.677 8.677 0 0 1-8.676-8.68c0-4.8 3.887-8.68 8.676-8.68h34.71a8.676 8.676 0 0 1 8.68 8.68 8.678 8.678 0 0 1-8.68 8.68zm0 0"/><path d="M208.27 485.965h-34.711a8.674 8.674 0 0 1-8.676-8.676c0-4.8 3.887-8.68 8.676-8.68h34.71a8.676 8.676 0 0 1 8.68 8.68 8.675 8.675 0 0 1-8.68 8.676zm0 0"/></g><path d="M451.254 416.543h-34.711a8.678 8.678 0 0 1-8.68-8.68c0-4.797 3.89-8.675 8.68-8.675h34.71c4.79 0 8.68 3.878 8.68 8.675 0 4.801-3.89 8.68-8.68 8.68zm0 0" fill="#6c4127"/><path d="M451.254 485.965h-34.711c-4.79 0-8.68-3.88-8.68-8.676 0-4.8 3.89-8.68 8.68-8.68h34.71c4.79 0 8.68 3.88 8.68 8.68 0 4.797-3.89 8.676-8.68 8.676zm0 0" fill="#6c4127"/><path d="M433.898 451.254h-34.71a8.675 8.675 0 0 1-8.68-8.676c0-4.8 3.887-8.68 8.68-8.68h34.71c4.79 0 8.68 3.88 8.68 8.68 0 4.797-3.89 8.676-8.68 8.676zm0 0" fill="#6c4127"/><path d="M242.984 356.492V512h17.356V356.492c-2.84-.41-5.727-.695-8.68-.695-2.95 0-5.84.285-8.676.695zm0 0" fill="#ddaea6"/><path d="M121.492 208.27v26.035H95.457V208.27h-34.71v26.035H34.71V208.27H0v60.746h156.203V208.27zm0 0" fill="#6c4127"/><path d="M468.61 208.27v26.035h-26.032V208.27h-34.715v26.035h-26.031V208.27h-34.715v60.746H503.32V208.27zm0 0" fill="#6c4127"/></g></svg>