<svg height="300" viewBox="-13 0 511 512" width="300" xmlns="http://www.w3.org/2000/svg"><title>006 bacteria</title><g class="nc-icon-wrapper"><path d="M88.36 165.79a52.635 52.635 0 0 0-26.067-6.892c-29.254 0-52.965 23.711-52.965 52.965 0 26.403 19.34 48.235 44.613 52.242 5.067 120.903 161.73-145.507 34.418-98.316zm0 0" fill="#167253"/><path d="M238.844 414.898c-30.367 0-58.906 36.66-84.172 23.664a52.92 52.92 0 0 0-4.102 20.473c0 29.254 23.711 52.965 52.965 52.965s52.965-23.71 52.965-52.965c0-.3-.035-.582-.043-.875-5.793.567-11.664-43.262-17.613-43.262zm0 0" fill="#167253"/><path d="M424.223 211.863c-3.54 0-6.989.36-10.364.934 6.684 19.058-7.289 39.512-7.289 60.86 0 21.343 13.946 41.788 7.29 60.855 3.374.574 6.824.937 10.363.937 34.129 0 61.793-27.668 61.793-61.793 0-34.129-27.664-61.793-61.793-61.793zm0 0" fill="#167253"/><path d="M238.844 132.414c24.187 0 47.203-39.336 68.379-30.906 1.324-4.203 2.242-8.59 2.242-13.23 0-24.376-19.766-44.141-44.137-44.141-24.375 0-44.137 19.765-44.137 44.14 0 .36.094.696.106 1.059 5.781-.61 11.605 43.078 17.547 43.078zm0 0" fill="#167253"/><path d="M424.223 273.656c0 102.383-82.996 185.38-185.38 185.38S53.466 376.038 53.466 273.655 136.46 88.277 238.844 88.277s185.379 82.996 185.379 185.38zm0 0" fill="#25ae88"/><g fill="#167253"><path d="M212.363 75.035c0 41.442-33.593 75.035-75.035 75.035s-75.035-33.593-75.035-75.035S95.887 0 137.328 0s75.035 33.594 75.035 75.035zm0 0"/><path d="M441.879 119.172c0 36.566-29.64 66.207-66.207 66.207s-66.207-29.64-66.207-66.207 29.64-66.207 66.207-66.207 66.207 29.64 66.207 66.207zm0 0"/><path d="M441.879 423.723c0 39.004-31.617 70.62-70.621 70.62-39 0-70.621-31.616-70.621-70.62 0-39 31.62-70.621 70.62-70.621 39.005 0 70.622 31.62 70.622 70.62zm0 0"/><path d="M150.57 366.344c0 41.441-33.593 75.035-75.035 75.035S.5 407.785.5 366.344c0-41.438 33.594-75.035 75.035-75.035s75.035 33.597 75.035 75.035zm0 0"/><path d="M309.465 269.242c0 36.563-29.64 66.207-66.207 66.207-36.563 0-66.207-29.644-66.207-66.207 0-36.566 29.644-66.207 66.207-66.207 36.566 0 66.207 29.64 66.207 66.207zm0 0"/></g></g></svg>