<svg height="300" viewBox="-10 0 512 512.001" width="300" xmlns="http://www.w3.org/2000/svg"><title>050 trombocite</title><g class="nc-icon-wrapper"><path d="M473.68 279.582c-6.938-9.746-10.45-21.527-10.438-33.7 0-31.222-6.969-60.792-19.367-87.316-7.492-16.015-11.059-33.53-10.29-51.203.462-10.82-.769-22.097-4.089-33.61-10.46-36.32-40.828-64.675-77.894-72.116C322.477-4.22 293.625 7 265.722 13.789c-27.773 6.762-56.109 6.031-83.777-1.055-34.851-8.918-64.754-17.847-97.644 2.414-26.7 16.454-46.778 44.739-52.633 75.637-3.41 18-1.125 35.86 2.453 53.785 2.871 14.403 13.14 60.864-5.281 94.266C16.086 261.957 0 283.613 0 309.949c0 45.063 28.8 83.395 68.992 97.594a40.77 40.77 0 0 0 3.637 1.078c18.996 4.79 35.562 17.57 42.375 35.945C129.62 483.941 167.449 512 211.91 512c38.035 0 71.211-20.55 89.176-51.133 5.7-9.707 15.062-16.715 25.648-20.57l.543-.195c10.563-3.844 22.125-4.547 32.907-1.344 15.644 4.652 32.812 5.726 50.691 2.004 41.406-8.625 74.11-42.79 80.633-84.578 4.476-28.66-2.836-55.551-17.828-76.602zm0 0" fill="#75348b"/><path d="M305.543 250.813c0 35.382-28.684 64.062-64.066 64.062-35.383 0-64.067-28.68-64.067-64.063s28.684-64.066 64.067-64.066c35.382 0 64.066 28.684 64.066 64.066zm0 0" fill="#56266b"/><path d="M214.629 192.71a63.977 63.977 0 0 0-16.43 10.97c-13.738 15.472-13.387 39.218 1.34 54.101 15.227 15.395 39.926 15.395 55.156 0 15.227-15.398 15.227-40.363 0-55.758-10.851-10.96-26.453-13.964-40.066-9.312zm0 0" fill="#ebba16"/></g></svg>